<svg id="Слой_1" data-name="Слой 1" xmlns="http://www.w3.org/2000/svg" viewBox="0 0 78.68 98.51">
    <defs>
        <style>.cls-1{fill:#59ad00;}</style>
    </defs>
    <title>apple</title>
    <path class="cls-1"
          d="M52.54,25.5h0A18.22,18.22,0,0,0,70.34,3.08,4,4,0,0,0,66.5,0h0A18.25,18.25,0,0,0,48.18,18.16a18.56,18.56,0,0,0,.49,4.26A4,4,0,0,0,52.54,25.5Zm4.3-14.88a12.19,12.19,0,0,1,8-4.51,12.23,12.23,0,0,1-10.6,13.28A12.17,12.17,0,0,1,56.84,10.62ZM0,57.77C0,38.59,12.34,28.25,23.93,28.25A38.14,38.14,0,0,1,35.41,29.8a3,3,0,0,1-1.7,5.76h0a32.65,32.65,0,0,0-9.78-1.31C15.24,34.25,6,42.5,6,57.78,6,74,17.7,92.51,28,92.51c3.59,0,5.24-1.51,6.85-3,1.34-1.23,2.86-2.61,5.23-2.61,2.08,0,4,1.32,6,2.72s4.11,2.87,6.24,2.87c3.45,0,20.43-11.66,20.43-34.73-.07-21.23-12.61-23.51-18-23.51a20.33,20.33,0,0,0-6.22,1.27c-.91.29-1.81.57-2.76.82a3,3,0,0,1-3.67-2.12,2.51,2.51,0,0,1-.1-.61c-.68-12-8.55-16.19-15-16.19a3,3,0,1,1,0-6c9,0,18.37,5.63,20.61,18.1a23.79,23.79,0,0,1,7.19-1.27c4,0,23.93,1.42,23.93,29.53,0,24.92-18.59,40.73-26.43,40.73-4,0-7.15-2.19-9.67-4A19,19,0,0,0,40,92.91a12.47,12.47,0,0,0-1.18,1A14.9,14.9,0,0,1,28,98.46C13.17,98.5,0,75.72,0,57.77Zm27.21-17a3,3,0,0,1,0,6c-3.91,0-8.07,3.87-8.07,11a3,3,0,0,1-6,0C13.14,46.71,20.39,40.77,27.21,40.77Z"/>
</svg>