<svg id="Слой_1" data-name="Слой 1" xmlns="http://www.w3.org/2000/svg" viewBox="0 0 90.62 101.71">
    <defs>
        <style>.cls-1{fill:#59ad00;}</style>
    </defs>
    <title>arrow</title>
    <path class="cls-1"
          d="M72.66,36.78H18a11.07,11.07,0,0,1,0-22.13,3.45,3.45,0,0,0,0-6.89,18,18,0,1,0,0,35.91H72.66a11.07,11.07,0,0,1,.67,22.13c-.23,0-.45,0-.67,0H35.32a18,18,0,0,0,0,35.91h9.24a3.45,3.45,0,0,0,.37-6.89H35.32a11.07,11.07,0,0,1,0-22.13H72.66a18,18,0,0,0,0-35.91Z"/>
    <path class="cls-1"
          d="M28.66,11.2l-5.32,5.32a3.45,3.45,0,0,0,4.87,4.87L38.4,11.2,28.21,1a3.45,3.45,0,0,0-4.87,4.87Z"/>
    <path class="cls-1"
          d="M72.66,14.65a11.07,11.07,0,0,1,9.47,16.79,3.45,3.45,0,1,0,5.41,4.28l.1-.13A3.21,3.21,0,0,0,88,35,18,18,0,0,0,72.66,7.76a3.45,3.45,0,0,0-.4,6.89h.4Z"/>
    <path class="cls-1"
          d="M19.2,69.59a3.45,3.45,0,0,0-2.9-3.92A11.05,11.05,0,0,1,8.78,48.55a3.45,3.45,0,0,0-5.71-3.86A17.78,17.78,0,0,0,0,54.73,18.06,18.06,0,0,0,15.29,72.49a4.34,4.34,0,0,0,.51,0A3.45,3.45,0,0,0,19.2,69.59Z"/>
    <path class="cls-1"
          d="M68,76.15a3.45,3.45,0,0,0-2.27,4.31A11.07,11.07,0,0,1,55.18,94.82a3.45,3.45,0,1,0-.4,6.89h0a2.29,2.29,0,0,0,.37,0A18,18,0,0,0,72.32,78.42,3.45,3.45,0,0,0,68,76.15Z"/>
    <path class="cls-1"
          d="M64.84,22.4a3.44,3.44,0,0,0,2.44-5.88L62,11.2l5.32-5.32A3.46,3.46,0,0,0,62.41,1L52.21,11.2l10.2,10.2A3.46,3.46,0,0,0,64.84,22.4Z"/>
</svg>