<svg id="Слой_1" data-name="Слой 1" xmlns="http://www.w3.org/2000/svg" viewBox="0 0 90 90">
    <defs>
        <style>.cls-1{fill:#59ad00;}</style>
    </defs>
    <title>circle</title>
    <path class="cls-1"
          d="M89.11,36.74a3,3,0,0,0-4.23,0l-.17.26-4.9,5.34a35,35,0,0,0-28-31.58L41,.81A3,3,0,0,0,38.86,0h0A3,3,0,0,0,37,5.21l5.36,4.9a35,35,0,0,0-31.6,28L.87,48.94a3,3,0,0,0,3.75,4.68l.25-.22a3,3,0,0,0,.25-.25L5.29,53l4.87-5.34A35,35,0,0,0,38.23,79.24L49,89.1a3,3,0,1,0,4.52-3.95h0a3,3,0,0,0-.25-.25L53,84.7l-5.33-4.9a35,35,0,0,0,31.58-28L89.13,41a3,3,0,0,0,0-4.24Zm-24.55,4L73.08,52.1A28.91,28.91,0,0,1,46.72,73.87l6.08-4.56a3,3,0,1,0-3.45-4.91h0l-.17.13L37.86,73.06A28.93,28.93,0,0,1,16.12,46.72l4.52,6a3,3,0,1,0,4.94-3.41l-.13-.17h0L16.93,37.83A28.91,28.91,0,0,1,43.25,16.08l-6,4.52a3,3,0,0,0,3.55,4.82h.06L52.1,16.93A28.92,28.92,0,0,1,73.88,43.2l-4.52-6a3,3,0,0,0-5.12,3.13,2.67,2.67,0,0,0,.32.43Z"/>
    <path class="cls-1"
          d="M53,42H44.22l9.89-9.89A3,3,0,0,0,51.64,27h0a3,3,0,0,0-1.78.91l-15,15A3,3,0,0,0,37,48h8.39L35,57.77a3,3,0,1,0,4.11,4.38h0l16-15A3,3,0,0,0,53,42Z"/>
</svg>