<svg width="20" height="21" viewBox="0 0 20 21" fill="none" xmlns="http://www.w3.org/2000/svg">
    <path d="M19.5882 15.1513L17.3347 12.8869C17.0709 12.6232 16.7131 12.4751 16.3401 12.4751C15.9672 12.4751 15.6094 12.6232 15.3456 12.8869L12.9899 15.2313L5.44709 7.68928L7.79393 5.34492C8.05694 5.08123 8.20464 4.72402 8.20464 4.35162C8.20464 3.97921 8.05694 3.622 7.79393 3.35832L5.52709 1.0895C5.26329 0.825846 4.90556 0.677734 4.53257 0.677734C4.15958 0.677734 3.80185 0.825846 3.53805 1.0895L0.411143 4.21607C0.280733 4.34652 0.177302 4.50139 0.106758 4.67182C0.0362132 4.84226 -6.32617e-05 5.02491 8.2814e-08 5.20937V5.59824C0.0377808 6.74265 0.553376 8.20482 1.50012 9.8381C2.64208 11.7491 4.02376 13.5063 5.61154 15.0668C7.16641 16.648 8.91615 18.0249 10.8186 19.1645C12.4454 20.1111 13.9077 20.6288 15.0545 20.6777H15.4701C15.8405 20.6781 16.196 20.5319 16.459 20.2711L19.5904 17.1401C19.8527 16.8765 20 16.5198 20 16.1479C20 15.776 19.8527 15.4193 19.5904 15.1557L19.5882 15.1513ZM19.1437 16.7068L16.019 19.8267C15.9383 19.9065 15.8412 19.9679 15.7345 20.0066C15.6491 20.0377 15.5588 20.0535 15.4679 20.0533H15.0767C14.0344 20.0111 12.6676 19.5156 11.1342 18.6245C9.27871 17.5119 7.5723 16.1678 6.05602 14.6246C4.51107 13.1025 3.16677 11.3895 2.05571 9.527C1.16676 7.98483 0.673385 6.62043 0.640049 5.57824V5.20937C0.633744 5.12034 0.642764 5.0309 0.666718 4.94493C0.706053 4.83734 0.768223 4.73955 0.848954 4.65827L3.97808 1.53171C4.05081 1.45834 4.13736 1.40011 4.23272 1.36037C4.32808 1.32062 4.43037 1.30016 4.53368 1.30016C4.637 1.30016 4.73929 1.32062 4.83465 1.36037C4.93001 1.40011 5.01655 1.45834 5.08928 1.53171L7.34946 3.78941C7.42283 3.86214 7.48107 3.94867 7.52082 4.04402C7.56057 4.13937 7.58103 4.24165 7.58103 4.34495C7.58103 4.44825 7.56057 4.55053 7.52082 4.64588C7.48107 4.74123 7.42283 4.82777 7.34946 4.90049L5.00483 7.24708L4.56035 7.69151L5.00483 8.13593L12.5476 15.6735L12.9921 16.1179L13.4366 15.6735L15.779 13.3291C15.8516 13.2555 15.9381 13.197 16.0334 13.1571C16.1288 13.1172 16.2312 13.0966 16.3346 13.0966C16.438 13.0966 16.5404 13.1172 16.6357 13.1571C16.7311 13.197 16.8176 13.2555 16.8902 13.3291L19.1481 15.5935C19.2215 15.6662 19.2798 15.7527 19.3195 15.8481C19.3593 15.9434 19.3797 16.0457 19.3797 16.149C19.3797 16.2523 19.3593 16.3546 19.3195 16.4499C19.2798 16.5453 19.2215 16.6318 19.1481 16.7045L19.1437 16.7068Z"
          fill="#59ad00"/>
</svg>
