<svg id="Слой_1" data-name="Слой 1" xmlns="http://www.w3.org/2000/svg" viewBox="0 0 508.03 508">
    <defs>
        <style>.cls-1{fill:#59ad00;}</style>
    </defs>
    <title>how-get2</title>
    <path class="cls-1"
          d="M254,303.2c51.7,0,96.4-30.2,117.7-73.7H426V172.1C426,77.2,348.8,0,254,0S81.9,77.2,81.9,172.1v8.2h41.4C127.6,248.7,184.5,303.2,254,303.2ZM361,213H301.1a31.76,31.76,0,1,0-.8,16.3h52.9A115.16,115.16,0,1,1,361,213Zm-75.5,7a15.1,15.1,0,1,1-15.1-15.1A15.1,15.1,0,0,1,285.5,220ZM254,16.4c85.8,0,155.7,69.8,155.7,155.7v41H378.5a129.53,129.53,0,0,0,6.6-41A131.23,131.23,0,0,0,254,41c-69.5,0-126.4,54.4-130.7,122.9H98.5C102.8,81.8,170.9,16.4,254,16.4Z"/>
    <path class="cls-1"
          d="M372.5,285.2S327.3,336,254,336c-72.7,0-118.5-50.8-118.5-50.8S0,339.9,0,508H508C510.5,341.6,372.5,285.2,372.5,285.2ZM16.5,491.6c2.8-78.6,46.6-149,116.1-186.5a179.73,179.73,0,0,0,242.8,0A220.43,220.43,0,0,1,491.5,491.6Z"/>
    <rect class="cls-1" x="245.8" y="368.7" width="16.4" height="16.4"/>
    <rect class="cls-1" x="245.8" y="409.7" width="16.4" height="16.4"/>
    <rect class="cls-1" x="245.8" y="450.6" width="16.4" height="16.4"/>
</svg>