<svg id="Слой_1" data-name="Слой 1" xmlns="http://www.w3.org/2000/svg" viewBox="0 0 78 89.99">
    <defs>
        <style>.cls-1{fill:#59ad00;}</style>
    </defs>
    <title>leaf</title>
    <path class="cls-1"
          d="M39,0C25.69,0,12.91,5,6.09,10.69A3,3,0,0,0,5,12.56l-5,34A3.23,3.23,0,0,0,0,47C0,62.22,6.29,70.61,14.06,75.84s16.62,8,23,13.44a3,3,0,0,0,3.88,0c6.38-5.47,15.23-8.2,23-13.44S78,62.22,78,47a3.23,3.23,0,0,0,0-.44l-5-34a3,3,0,0,0-1.06-1.87C65.09,5,52.31,0,39,0Zm0,6c11.2,0,22.7,4.57,28.22,8.75L72,47.13c0,13.59-4.73,19.2-11.44,23.72C54.38,75,46.2,77.84,39,83.31,31.8,77.84,23.62,75,17.44,70.84,10.73,66.32,6,60.72,6,47.13l4.78-32.37C16.3,10.57,27.8,6,39,6Zm10.72,8a3,3,0,0,0-2.56,2c-1.5,4.43-7.81,8.68-14.41,13.25A49.37,49.37,0,0,0,23.56,37,16.72,16.72,0,0,0,19,48a18.22,18.22,0,0,0,2.94,10.34,16.5,16.5,0,0,0-3.72,5.53,3,3,0,0,0,5.49,2.43.19.19,0,0,1,.05-.13h0a10.3,10.3,0,0,1,2.53-3.56C29.94,64.92,34.6,66,40,66c6.33,0,11.72-3.36,15.34-8.06A28,28,0,0,0,61,41c0-8.71-2.28-19.27-8.84-26.09A3,3,0,0,0,49.72,14Zm.63,8.63A38.13,38.13,0,0,1,55,41a22.27,22.27,0,0,1-4.41,13.25C47.85,57.81,44.23,60,40,60a22.25,22.25,0,0,1-8.28-1.34l3.72-2.28C41,53,47.29,48.2,49.91,38.78A3,3,0,0,0,44.2,37a2.17,2.17,0,0,0-.07.24C42,44.8,37.5,48.09,32.31,51.25c-1.83,1.11-3.77,2.2-5.66,3.41A12,12,0,0,1,25,48c0-2.64,1.06-4.82,3.06-7.09a46.11,46.11,0,0,1,8.12-6.69c4.94-3.43,10.63-6.77,14.16-11.59Z"/>
</svg>